<mxfile host="Electron" modified="2024-03-15T01:09:41.666Z" agent="Mozilla/5.0 (Windows NT 10.0; Win64; x64) AppleWebKit/537.36 (KHTML, like Gecko) draw.io/24.0.4 Chrome/120.0.6099.109 Electron/28.1.0 Safari/537.36" etag="m_VABCulVb-emvZ9lX3q" version="24.0.4" type="device">
  <diagram name="Page-1" id="f9IlDeySOLaf-E5A3R-9">
    <mxGraphModel dx="2048" dy="1886" grid="1" gridSize="10" guides="1" tooltips="1" connect="1" arrows="1" fold="1" page="1" pageScale="1" pageWidth="827" pageHeight="1169" math="1" shadow="0">
      <root>
        <mxCell id="0" />
        <mxCell id="1" parent="0" />
        <mxCell id="cAqMp44vDnKgsNihhd7Q-1" value="\(X_1\)" style="rounded=0;whiteSpace=wrap;html=1;" parent="1" vertex="1">
          <mxGeometry x="100" y="245" width="40" height="40" as="geometry" />
        </mxCell>
        <mxCell id="cAqMp44vDnKgsNihhd7Q-2" value="\(X_2\)" style="rounded=0;whiteSpace=wrap;html=1;" parent="1" vertex="1">
          <mxGeometry x="140" y="245" width="40" height="40" as="geometry" />
        </mxCell>
        <mxCell id="cAqMp44vDnKgsNihhd7Q-3" value="\(X_3\)" style="rounded=0;whiteSpace=wrap;html=1;" parent="1" vertex="1">
          <mxGeometry x="180" y="245" width="40" height="40" as="geometry" />
        </mxCell>
        <mxCell id="cAqMp44vDnKgsNihhd7Q-4" value="" style="shape=waypoint;sketch=0;fillStyle=solid;size=6;pointerEvents=1;points=[];fillColor=none;resizable=0;rotatable=0;perimeter=centerPerimeter;snapToPoint=1;" parent="1" vertex="1">
          <mxGeometry x="230" y="255" width="20" height="20" as="geometry" />
        </mxCell>
        <mxCell id="cAqMp44vDnKgsNihhd7Q-5" value="" style="shape=waypoint;sketch=0;fillStyle=solid;size=6;pointerEvents=1;points=[];fillColor=none;resizable=0;rotatable=0;perimeter=centerPerimeter;snapToPoint=1;" parent="1" vertex="1">
          <mxGeometry x="270" y="255" width="20" height="20" as="geometry" />
        </mxCell>
        <mxCell id="cAqMp44vDnKgsNihhd7Q-6" value="" style="shape=waypoint;sketch=0;fillStyle=solid;size=6;pointerEvents=1;points=[];fillColor=none;resizable=0;rotatable=0;perimeter=centerPerimeter;snapToPoint=1;" parent="1" vertex="1">
          <mxGeometry x="310" y="255" width="20" height="20" as="geometry" />
        </mxCell>
        <mxCell id="cAqMp44vDnKgsNihhd7Q-7" value="\(X_{1000}\)" style="rounded=0;whiteSpace=wrap;html=1;" parent="1" vertex="1">
          <mxGeometry x="340" y="245" width="40" height="40" as="geometry" />
        </mxCell>
        <mxCell id="cAqMp44vDnKgsNihhd7Q-8" value="" style="shape=curlyBracket;whiteSpace=wrap;html=1;rounded=1;flipH=1;labelPosition=right;verticalLabelPosition=middle;align=left;verticalAlign=middle;rotation=90;" parent="1" vertex="1">
          <mxGeometry x="185" y="210" width="20" height="190" as="geometry" />
        </mxCell>
        <mxCell id="cAqMp44vDnKgsNihhd7Q-9" value="" style="shape=curlyBracket;whiteSpace=wrap;html=1;rounded=1;flipH=1;labelPosition=right;verticalLabelPosition=middle;align=left;verticalAlign=middle;rotation=90;" parent="1" vertex="1">
          <mxGeometry x="331.25" y="263.75" width="20" height="82.5" as="geometry" />
        </mxCell>
        <mxCell id="cAqMp44vDnKgsNihhd7Q-11" value="\(75\%\)" style="text;html=1;align=center;verticalAlign=middle;whiteSpace=wrap;rounded=0;" parent="1" vertex="1">
          <mxGeometry x="165" y="315" width="60" height="21.25" as="geometry" />
        </mxCell>
        <mxCell id="cAqMp44vDnKgsNihhd7Q-12" value="\(25\%\)" style="text;html=1;align=center;verticalAlign=middle;whiteSpace=wrap;rounded=0;" parent="1" vertex="1">
          <mxGeometry x="310" y="315" width="60" height="21.25" as="geometry" />
        </mxCell>
        <mxCell id="cAqMp44vDnKgsNihhd7Q-13" value="\(X_1\)" style="rounded=0;whiteSpace=wrap;html=1;fillColor=#dae8fc;strokeColor=#6c8ebf;" parent="1" vertex="1">
          <mxGeometry x="-20" y="365" width="40" height="40" as="geometry" />
        </mxCell>
        <mxCell id="cAqMp44vDnKgsNihhd7Q-15" value="\(X_2\)" style="rounded=0;whiteSpace=wrap;html=1;fillColor=#dae8fc;strokeColor=#6c8ebf;" parent="1" vertex="1">
          <mxGeometry x="20" y="365" width="40" height="40" as="geometry" />
        </mxCell>
        <mxCell id="cAqMp44vDnKgsNihhd7Q-16" value="\(X_3\)" style="rounded=0;whiteSpace=wrap;html=1;fillColor=#dae8fc;strokeColor=#6c8ebf;" parent="1" vertex="1">
          <mxGeometry x="60" y="365" width="40" height="40" as="geometry" />
        </mxCell>
        <mxCell id="cAqMp44vDnKgsNihhd7Q-17" value="\(X_{750}\)" style="rounded=0;whiteSpace=wrap;html=1;fillColor=#dae8fc;strokeColor=#6c8ebf;" parent="1" vertex="1">
          <mxGeometry x="220" y="365" width="40" height="40" as="geometry" />
        </mxCell>
        <mxCell id="cAqMp44vDnKgsNihhd7Q-18" value="" style="shape=waypoint;sketch=0;fillStyle=solid;size=6;pointerEvents=1;points=[];fillColor=none;resizable=0;rotatable=0;perimeter=centerPerimeter;snapToPoint=1;" parent="1" vertex="1">
          <mxGeometry x="110" y="375" width="20" height="20" as="geometry" />
        </mxCell>
        <mxCell id="cAqMp44vDnKgsNihhd7Q-19" value="" style="shape=waypoint;sketch=0;fillStyle=solid;size=6;pointerEvents=1;points=[];fillColor=none;resizable=0;rotatable=0;perimeter=centerPerimeter;snapToPoint=1;" parent="1" vertex="1">
          <mxGeometry x="150" y="375" width="20" height="20" as="geometry" />
        </mxCell>
        <mxCell id="cAqMp44vDnKgsNihhd7Q-20" value="" style="shape=waypoint;sketch=0;fillStyle=solid;size=6;pointerEvents=1;points=[];fillColor=none;resizable=0;rotatable=0;perimeter=centerPerimeter;snapToPoint=1;" parent="1" vertex="1">
          <mxGeometry x="190" y="375" width="20" height="20" as="geometry" />
        </mxCell>
        <mxCell id="cAqMp44vDnKgsNihhd7Q-21" value="\(X_{751}\)" style="rounded=0;whiteSpace=wrap;html=1;" parent="1" vertex="1">
          <mxGeometry x="300" y="365" width="40" height="40" as="geometry" />
        </mxCell>
        <mxCell id="cAqMp44vDnKgsNihhd7Q-22" value="\(X_{752}\)" style="rounded=0;whiteSpace=wrap;html=1;" parent="1" vertex="1">
          <mxGeometry x="340" y="365" width="40" height="40" as="geometry" />
        </mxCell>
        <mxCell id="cAqMp44vDnKgsNihhd7Q-23" value="\(X_{752}\)" style="rounded=0;whiteSpace=wrap;html=1;" parent="1" vertex="1">
          <mxGeometry x="380" y="365" width="40" height="40" as="geometry" />
        </mxCell>
        <mxCell id="cAqMp44vDnKgsNihhd7Q-24" value="\(X_{1000}\)" style="rounded=0;whiteSpace=wrap;html=1;" parent="1" vertex="1">
          <mxGeometry x="540" y="365" width="40" height="40" as="geometry" />
        </mxCell>
        <mxCell id="cAqMp44vDnKgsNihhd7Q-25" value="" style="shape=waypoint;sketch=0;fillStyle=solid;size=6;pointerEvents=1;points=[];fillColor=none;resizable=0;rotatable=0;perimeter=centerPerimeter;snapToPoint=1;" parent="1" vertex="1">
          <mxGeometry x="430" y="375" width="20" height="20" as="geometry" />
        </mxCell>
        <mxCell id="cAqMp44vDnKgsNihhd7Q-26" value="" style="shape=waypoint;sketch=0;fillStyle=solid;size=6;pointerEvents=1;points=[];fillColor=none;resizable=0;rotatable=0;perimeter=centerPerimeter;snapToPoint=1;" parent="1" vertex="1">
          <mxGeometry x="470" y="375" width="20" height="20" as="geometry" />
        </mxCell>
        <mxCell id="cAqMp44vDnKgsNihhd7Q-27" value="" style="shape=waypoint;sketch=0;fillStyle=solid;size=6;pointerEvents=1;points=[];fillColor=none;resizable=0;rotatable=0;perimeter=centerPerimeter;snapToPoint=1;" parent="1" vertex="1">
          <mxGeometry x="510" y="375" width="20" height="20" as="geometry" />
        </mxCell>
        <mxCell id="cAqMp44vDnKgsNihhd7Q-28" value="" style="endArrow=none;html=1;rounded=0;" parent="1" edge="1">
          <mxGeometry width="50" height="50" relative="1" as="geometry">
            <mxPoint x="-30" y="365" as="sourcePoint" />
            <mxPoint x="270" y="365" as="targetPoint" />
            <Array as="points">
              <mxPoint y="335" />
              <mxPoint x="180" y="335" />
              <mxPoint x="260" y="335" />
            </Array>
          </mxGeometry>
        </mxCell>
        <mxCell id="cAqMp44vDnKgsNihhd7Q-29" value="" style="endArrow=none;html=1;rounded=0;" parent="1" edge="1">
          <mxGeometry width="50" height="50" relative="1" as="geometry">
            <mxPoint x="290" y="365" as="sourcePoint" />
            <mxPoint x="590" y="365" as="targetPoint" />
            <Array as="points">
              <mxPoint x="300" y="335" />
              <mxPoint x="500" y="335" />
              <mxPoint x="560" y="335" />
            </Array>
          </mxGeometry>
        </mxCell>
        <mxCell id="cAqMp44vDnKgsNihhd7Q-30" value="&lt;b&gt;A model&lt;/b&gt;" style="text;html=1;align=center;verticalAlign=middle;whiteSpace=wrap;rounded=0;" parent="1" vertex="1">
          <mxGeometry x="-80" y="245" width="60" height="40" as="geometry" />
        </mxCell>
        <mxCell id="cAqMp44vDnKgsNihhd7Q-31" value="" style="endArrow=classic;html=1;rounded=0;" parent="1" edge="1">
          <mxGeometry width="50" height="50" relative="1" as="geometry">
            <mxPoint x="-20" y="265" as="sourcePoint" />
            <mxPoint x="80" y="265" as="targetPoint" />
          </mxGeometry>
        </mxCell>
        <mxCell id="cAqMp44vDnKgsNihhd7Q-32" value="&lt;b&gt;We do not know whether the model is overfitting or not&lt;/b&gt;" style="text;html=1;align=center;verticalAlign=middle;whiteSpace=wrap;rounded=0;" parent="1" vertex="1">
          <mxGeometry x="460" y="245" width="180" height="40" as="geometry" />
        </mxCell>
        <mxCell id="cAqMp44vDnKgsNihhd7Q-33" value="" style="endArrow=classic;html=1;rounded=0;" parent="1" edge="1">
          <mxGeometry width="50" height="50" relative="1" as="geometry">
            <mxPoint x="400" y="263.75" as="sourcePoint" />
            <mxPoint x="460" y="264" as="targetPoint" />
          </mxGeometry>
        </mxCell>
        <mxCell id="cAqMp44vDnKgsNihhd7Q-34" value="\(X_1\)" style="rounded=0;whiteSpace=wrap;html=1;" parent="1" vertex="1">
          <mxGeometry x="80" y="-160" width="40" height="40" as="geometry" />
        </mxCell>
        <mxCell id="cAqMp44vDnKgsNihhd7Q-35" value="\(X_2\)" style="rounded=0;whiteSpace=wrap;html=1;" parent="1" vertex="1">
          <mxGeometry x="120" y="-160" width="40" height="40" as="geometry" />
        </mxCell>
        <mxCell id="cAqMp44vDnKgsNihhd7Q-36" value="\(X_3\)" style="rounded=0;whiteSpace=wrap;html=1;" parent="1" vertex="1">
          <mxGeometry x="160" y="-160" width="40" height="40" as="geometry" />
        </mxCell>
        <mxCell id="cAqMp44vDnKgsNihhd7Q-37" value="" style="shape=waypoint;sketch=0;fillStyle=solid;size=6;pointerEvents=1;points=[];fillColor=none;resizable=0;rotatable=0;perimeter=centerPerimeter;snapToPoint=1;" parent="1" vertex="1">
          <mxGeometry x="210" y="-150" width="20" height="20" as="geometry" />
        </mxCell>
        <mxCell id="cAqMp44vDnKgsNihhd7Q-38" value="" style="shape=waypoint;sketch=0;fillStyle=solid;size=6;pointerEvents=1;points=[];fillColor=none;resizable=0;rotatable=0;perimeter=centerPerimeter;snapToPoint=1;" parent="1" vertex="1">
          <mxGeometry x="250" y="-150" width="20" height="20" as="geometry" />
        </mxCell>
        <mxCell id="cAqMp44vDnKgsNihhd7Q-39" value="" style="shape=waypoint;sketch=0;fillStyle=solid;size=6;pointerEvents=1;points=[];fillColor=none;resizable=0;rotatable=0;perimeter=centerPerimeter;snapToPoint=1;" parent="1" vertex="1">
          <mxGeometry x="290" y="-150" width="20" height="20" as="geometry" />
        </mxCell>
        <mxCell id="cAqMp44vDnKgsNihhd7Q-40" value="\(X_{1000}\)" style="rounded=0;whiteSpace=wrap;html=1;" parent="1" vertex="1">
          <mxGeometry x="320" y="-160" width="40" height="40" as="geometry" />
        </mxCell>
        <mxCell id="cAqMp44vDnKgsNihhd7Q-41" value="" style="shape=curlyBracket;whiteSpace=wrap;html=1;rounded=1;flipH=1;labelPosition=right;verticalLabelPosition=middle;align=left;verticalAlign=middle;rotation=90;" parent="1" vertex="1">
          <mxGeometry x="165" y="-195" width="20" height="190" as="geometry" />
        </mxCell>
        <mxCell id="cAqMp44vDnKgsNihhd7Q-42" value="" style="shape=curlyBracket;whiteSpace=wrap;html=1;rounded=1;flipH=1;labelPosition=right;verticalLabelPosition=middle;align=left;verticalAlign=middle;rotation=90;" parent="1" vertex="1">
          <mxGeometry x="311.25" y="-141.25" width="20" height="82.5" as="geometry" />
        </mxCell>
        <mxCell id="cAqMp44vDnKgsNihhd7Q-43" value="\(75\%\)" style="text;html=1;align=center;verticalAlign=middle;whiteSpace=wrap;rounded=0;" parent="1" vertex="1">
          <mxGeometry x="145" y="-90" width="60" height="21.25" as="geometry" />
        </mxCell>
        <mxCell id="cAqMp44vDnKgsNihhd7Q-44" value="\(25\%\)" style="text;html=1;align=center;verticalAlign=middle;whiteSpace=wrap;rounded=0;" parent="1" vertex="1">
          <mxGeometry x="290" y="-90" width="60" height="21.25" as="geometry" />
        </mxCell>
        <mxCell id="cAqMp44vDnKgsNihhd7Q-45" value="\(X_1\)" style="rounded=0;whiteSpace=wrap;html=1;fillColor=#dae8fc;strokeColor=#6c8ebf;" parent="1" vertex="1">
          <mxGeometry x="-40" y="-40" width="40" height="40" as="geometry" />
        </mxCell>
        <mxCell id="cAqMp44vDnKgsNihhd7Q-46" value="\(X_2\)" style="rounded=0;whiteSpace=wrap;html=1;fillColor=#dae8fc;strokeColor=#6c8ebf;" parent="1" vertex="1">
          <mxGeometry y="-40" width="40" height="40" as="geometry" />
        </mxCell>
        <mxCell id="cAqMp44vDnKgsNihhd7Q-47" value="\(X_3\)" style="rounded=0;whiteSpace=wrap;html=1;fillColor=#dae8fc;strokeColor=#6c8ebf;" parent="1" vertex="1">
          <mxGeometry x="40" y="-40" width="40" height="40" as="geometry" />
        </mxCell>
        <mxCell id="cAqMp44vDnKgsNihhd7Q-48" value="\(X_{750}\)" style="rounded=0;whiteSpace=wrap;html=1;fillColor=#dae8fc;strokeColor=#6c8ebf;" parent="1" vertex="1">
          <mxGeometry x="200" y="-40" width="40" height="40" as="geometry" />
        </mxCell>
        <mxCell id="cAqMp44vDnKgsNihhd7Q-49" value="" style="shape=waypoint;sketch=0;fillStyle=solid;size=6;pointerEvents=1;points=[];fillColor=none;resizable=0;rotatable=0;perimeter=centerPerimeter;snapToPoint=1;" parent="1" vertex="1">
          <mxGeometry x="90" y="-30" width="20" height="20" as="geometry" />
        </mxCell>
        <mxCell id="cAqMp44vDnKgsNihhd7Q-50" value="" style="shape=waypoint;sketch=0;fillStyle=solid;size=6;pointerEvents=1;points=[];fillColor=none;resizable=0;rotatable=0;perimeter=centerPerimeter;snapToPoint=1;" parent="1" vertex="1">
          <mxGeometry x="130" y="-30" width="20" height="20" as="geometry" />
        </mxCell>
        <mxCell id="cAqMp44vDnKgsNihhd7Q-51" value="" style="shape=waypoint;sketch=0;fillStyle=solid;size=6;pointerEvents=1;points=[];fillColor=none;resizable=0;rotatable=0;perimeter=centerPerimeter;snapToPoint=1;" parent="1" vertex="1">
          <mxGeometry x="170" y="-30" width="20" height="20" as="geometry" />
        </mxCell>
        <mxCell id="cAqMp44vDnKgsNihhd7Q-52" value="\(X_{751}\)" style="rounded=0;whiteSpace=wrap;html=1;" parent="1" vertex="1">
          <mxGeometry x="280" y="-40" width="40" height="40" as="geometry" />
        </mxCell>
        <mxCell id="cAqMp44vDnKgsNihhd7Q-53" value="\(X_{752}\)" style="rounded=0;whiteSpace=wrap;html=1;" parent="1" vertex="1">
          <mxGeometry x="320" y="-40" width="40" height="40" as="geometry" />
        </mxCell>
        <mxCell id="cAqMp44vDnKgsNihhd7Q-54" value="\(X_{752}\)" style="rounded=0;whiteSpace=wrap;html=1;" parent="1" vertex="1">
          <mxGeometry x="360" y="-40" width="40" height="40" as="geometry" />
        </mxCell>
        <mxCell id="cAqMp44vDnKgsNihhd7Q-55" value="\(X_{1000}\)" style="rounded=0;whiteSpace=wrap;html=1;" parent="1" vertex="1">
          <mxGeometry x="520" y="-40" width="40" height="40" as="geometry" />
        </mxCell>
        <mxCell id="cAqMp44vDnKgsNihhd7Q-56" value="" style="shape=waypoint;sketch=0;fillStyle=solid;size=6;pointerEvents=1;points=[];fillColor=none;resizable=0;rotatable=0;perimeter=centerPerimeter;snapToPoint=1;" parent="1" vertex="1">
          <mxGeometry x="410" y="-30" width="20" height="20" as="geometry" />
        </mxCell>
        <mxCell id="cAqMp44vDnKgsNihhd7Q-57" value="" style="shape=waypoint;sketch=0;fillStyle=solid;size=6;pointerEvents=1;points=[];fillColor=none;resizable=0;rotatable=0;perimeter=centerPerimeter;snapToPoint=1;" parent="1" vertex="1">
          <mxGeometry x="450" y="-30" width="20" height="20" as="geometry" />
        </mxCell>
        <mxCell id="cAqMp44vDnKgsNihhd7Q-58" value="" style="shape=waypoint;sketch=0;fillStyle=solid;size=6;pointerEvents=1;points=[];fillColor=none;resizable=0;rotatable=0;perimeter=centerPerimeter;snapToPoint=1;" parent="1" vertex="1">
          <mxGeometry x="490" y="-30" width="20" height="20" as="geometry" />
        </mxCell>
        <mxCell id="cAqMp44vDnKgsNihhd7Q-59" value="" style="endArrow=none;html=1;rounded=0;" parent="1" edge="1">
          <mxGeometry width="50" height="50" relative="1" as="geometry">
            <mxPoint x="-50" y="-40" as="sourcePoint" />
            <mxPoint x="250" y="-40" as="targetPoint" />
            <Array as="points">
              <mxPoint x="-20" y="-70" />
              <mxPoint x="160" y="-70" />
              <mxPoint x="240" y="-70" />
            </Array>
          </mxGeometry>
        </mxCell>
        <mxCell id="cAqMp44vDnKgsNihhd7Q-60" value="" style="endArrow=none;html=1;rounded=0;" parent="1" edge="1">
          <mxGeometry width="50" height="50" relative="1" as="geometry">
            <mxPoint x="270" y="-40" as="sourcePoint" />
            <mxPoint x="570" y="-40" as="targetPoint" />
            <Array as="points">
              <mxPoint x="280" y="-70" />
              <mxPoint x="480" y="-70" />
              <mxPoint x="540" y="-70" />
            </Array>
          </mxGeometry>
        </mxCell>
        <mxCell id="cAqMp44vDnKgsNihhd7Q-62" value="\(X_1\)" style="rounded=0;whiteSpace=wrap;html=1;fillColor=#dae8fc;strokeColor=#6c8ebf;" parent="1" vertex="1">
          <mxGeometry x="890" y="-160" width="40" height="40" as="geometry" />
        </mxCell>
        <mxCell id="cAqMp44vDnKgsNihhd7Q-63" value="\(X_2\)" style="rounded=0;whiteSpace=wrap;html=1;fillColor=#dae8fc;strokeColor=#6c8ebf;" parent="1" vertex="1">
          <mxGeometry x="930" y="-160" width="40" height="40" as="geometry" />
        </mxCell>
        <mxCell id="cAqMp44vDnKgsNihhd7Q-64" value="\(X_3\)" style="rounded=0;whiteSpace=wrap;html=1;fillColor=#dae8fc;strokeColor=#6c8ebf;" parent="1" vertex="1">
          <mxGeometry x="970" y="-160" width="40" height="40" as="geometry" />
        </mxCell>
        <mxCell id="cAqMp44vDnKgsNihhd7Q-65" value="" style="shape=waypoint;sketch=0;fillStyle=solid;size=6;pointerEvents=1;points=[];fillColor=none;resizable=0;rotatable=0;perimeter=centerPerimeter;snapToPoint=1;" parent="1" vertex="1">
          <mxGeometry x="1020" y="-150" width="20" height="20" as="geometry" />
        </mxCell>
        <mxCell id="cAqMp44vDnKgsNihhd7Q-66" value="" style="shape=waypoint;sketch=0;fillStyle=solid;size=6;pointerEvents=1;points=[];fillColor=none;resizable=0;rotatable=0;perimeter=centerPerimeter;snapToPoint=1;" parent="1" vertex="1">
          <mxGeometry x="1060" y="-150" width="20" height="20" as="geometry" />
        </mxCell>
        <mxCell id="cAqMp44vDnKgsNihhd7Q-67" value="" style="shape=waypoint;sketch=0;fillStyle=solid;size=6;pointerEvents=1;points=[];fillColor=none;resizable=0;rotatable=0;perimeter=centerPerimeter;snapToPoint=1;" parent="1" vertex="1">
          <mxGeometry x="1100" y="-150" width="20" height="20" as="geometry" />
        </mxCell>
        <mxCell id="cAqMp44vDnKgsNihhd7Q-68" value="\(X_{1000}\)" style="rounded=0;whiteSpace=wrap;html=1;fillColor=#dae8fc;strokeColor=#6c8ebf;" parent="1" vertex="1">
          <mxGeometry x="1130" y="-160" width="40" height="40" as="geometry" />
        </mxCell>
        <mxCell id="cAqMp44vDnKgsNihhd7Q-69" value="" style="shape=curlyBracket;whiteSpace=wrap;html=1;rounded=1;flipH=1;labelPosition=right;verticalLabelPosition=middle;align=left;verticalAlign=middle;rotation=90;" parent="1" vertex="1">
          <mxGeometry x="975" y="-130" width="20" height="190" as="geometry" />
        </mxCell>
        <mxCell id="cAqMp44vDnKgsNihhd7Q-70" value="" style="shape=curlyBracket;whiteSpace=wrap;html=1;rounded=1;flipH=1;labelPosition=right;verticalLabelPosition=middle;align=left;verticalAlign=middle;rotation=90;" parent="1" vertex="1">
          <mxGeometry x="1123.13" y="-78.12" width="20" height="86.25" as="geometry" />
        </mxCell>
        <mxCell id="cAqMp44vDnKgsNihhd7Q-71" value="\(75\%\)" style="text;html=1;align=center;verticalAlign=middle;whiteSpace=wrap;rounded=0;" parent="1" vertex="1">
          <mxGeometry x="955" y="-21" width="60" height="21.25" as="geometry" />
        </mxCell>
        <mxCell id="cAqMp44vDnKgsNihhd7Q-72" value="\(25\%\)" style="text;html=1;align=center;verticalAlign=middle;whiteSpace=wrap;rounded=0;" parent="1" vertex="1">
          <mxGeometry x="1100" y="-21" width="60" height="21.25" as="geometry" />
        </mxCell>
        <mxCell id="cAqMp44vDnKgsNihhd7Q-73" value="\(X_1\)" style="rounded=0;whiteSpace=wrap;html=1;fillColor=#dae8fc;strokeColor=#6c8ebf;" parent="1" vertex="1">
          <mxGeometry x="770" y="30" width="40" height="40" as="geometry" />
        </mxCell>
        <mxCell id="cAqMp44vDnKgsNihhd7Q-74" value="\(X_2\)" style="rounded=0;whiteSpace=wrap;html=1;fillColor=#dae8fc;strokeColor=#6c8ebf;" parent="1" vertex="1">
          <mxGeometry x="810" y="30" width="40" height="40" as="geometry" />
        </mxCell>
        <mxCell id="cAqMp44vDnKgsNihhd7Q-75" value="\(X_3\)" style="rounded=0;whiteSpace=wrap;html=1;fillColor=#dae8fc;strokeColor=#6c8ebf;" parent="1" vertex="1">
          <mxGeometry x="850" y="30" width="40" height="40" as="geometry" />
        </mxCell>
        <mxCell id="cAqMp44vDnKgsNihhd7Q-76" value="\(X_{750}\)" style="rounded=0;whiteSpace=wrap;html=1;fillColor=#dae8fc;strokeColor=#6c8ebf;" parent="1" vertex="1">
          <mxGeometry x="1010" y="30" width="40" height="40" as="geometry" />
        </mxCell>
        <mxCell id="cAqMp44vDnKgsNihhd7Q-77" value="" style="shape=waypoint;sketch=0;fillStyle=solid;size=6;pointerEvents=1;points=[];fillColor=none;resizable=0;rotatable=0;perimeter=centerPerimeter;snapToPoint=1;" parent="1" vertex="1">
          <mxGeometry x="900" y="40" width="20" height="20" as="geometry" />
        </mxCell>
        <mxCell id="cAqMp44vDnKgsNihhd7Q-78" value="" style="shape=waypoint;sketch=0;fillStyle=solid;size=6;pointerEvents=1;points=[];fillColor=none;resizable=0;rotatable=0;perimeter=centerPerimeter;snapToPoint=1;" parent="1" vertex="1">
          <mxGeometry x="940" y="40" width="20" height="20" as="geometry" />
        </mxCell>
        <mxCell id="cAqMp44vDnKgsNihhd7Q-79" value="" style="shape=waypoint;sketch=0;fillStyle=solid;size=6;pointerEvents=1;points=[];fillColor=none;resizable=0;rotatable=0;perimeter=centerPerimeter;snapToPoint=1;" parent="1" vertex="1">
          <mxGeometry x="980" y="40" width="20" height="20" as="geometry" />
        </mxCell>
        <mxCell id="cAqMp44vDnKgsNihhd7Q-80" value="\(X_{751}\)" style="rounded=0;whiteSpace=wrap;html=1;" parent="1" vertex="1">
          <mxGeometry x="1090" y="30" width="40" height="40" as="geometry" />
        </mxCell>
        <mxCell id="cAqMp44vDnKgsNihhd7Q-81" value="\(X_{752}\)" style="rounded=0;whiteSpace=wrap;html=1;" parent="1" vertex="1">
          <mxGeometry x="1130" y="30" width="40" height="40" as="geometry" />
        </mxCell>
        <mxCell id="cAqMp44vDnKgsNihhd7Q-82" value="\(X_{752}\)" style="rounded=0;whiteSpace=wrap;html=1;" parent="1" vertex="1">
          <mxGeometry x="1170" y="30" width="40" height="40" as="geometry" />
        </mxCell>
        <mxCell id="cAqMp44vDnKgsNihhd7Q-83" value="\(X_{1000}\)" style="rounded=0;whiteSpace=wrap;html=1;" parent="1" vertex="1">
          <mxGeometry x="1330" y="30" width="40" height="40" as="geometry" />
        </mxCell>
        <mxCell id="cAqMp44vDnKgsNihhd7Q-84" value="" style="shape=waypoint;sketch=0;fillStyle=solid;size=6;pointerEvents=1;points=[];fillColor=none;resizable=0;rotatable=0;perimeter=centerPerimeter;snapToPoint=1;" parent="1" vertex="1">
          <mxGeometry x="1220" y="40" width="20" height="20" as="geometry" />
        </mxCell>
        <mxCell id="cAqMp44vDnKgsNihhd7Q-85" value="" style="shape=waypoint;sketch=0;fillStyle=solid;size=6;pointerEvents=1;points=[];fillColor=none;resizable=0;rotatable=0;perimeter=centerPerimeter;snapToPoint=1;" parent="1" vertex="1">
          <mxGeometry x="1260" y="40" width="20" height="20" as="geometry" />
        </mxCell>
        <mxCell id="cAqMp44vDnKgsNihhd7Q-86" value="" style="shape=waypoint;sketch=0;fillStyle=solid;size=6;pointerEvents=1;points=[];fillColor=none;resizable=0;rotatable=0;perimeter=centerPerimeter;snapToPoint=1;" parent="1" vertex="1">
          <mxGeometry x="1300" y="40" width="20" height="20" as="geometry" />
        </mxCell>
        <mxCell id="cAqMp44vDnKgsNihhd7Q-87" value="" style="endArrow=none;html=1;rounded=0;" parent="1" edge="1">
          <mxGeometry width="50" height="50" relative="1" as="geometry">
            <mxPoint x="760" y="30" as="sourcePoint" />
            <mxPoint x="1060" y="30" as="targetPoint" />
            <Array as="points">
              <mxPoint x="790" />
              <mxPoint x="970" />
              <mxPoint x="1050" />
            </Array>
          </mxGeometry>
        </mxCell>
        <mxCell id="cAqMp44vDnKgsNihhd7Q-88" value="" style="endArrow=none;html=1;rounded=0;" parent="1" edge="1">
          <mxGeometry width="50" height="50" relative="1" as="geometry">
            <mxPoint x="1080" y="30" as="sourcePoint" />
            <mxPoint x="1380" y="30" as="targetPoint" />
            <Array as="points">
              <mxPoint x="1090" />
              <mxPoint x="1290" />
              <mxPoint x="1350" />
            </Array>
          </mxGeometry>
        </mxCell>
        <mxCell id="cAqMp44vDnKgsNihhd7Q-89" value="\(y_1\)" style="rounded=0;whiteSpace=wrap;html=1;fillColor=#d5e8d4;strokeColor=#82b366;" parent="1" vertex="1">
          <mxGeometry x="890" y="-99.37" width="40" height="40" as="geometry" />
        </mxCell>
        <mxCell id="cAqMp44vDnKgsNihhd7Q-90" value="\(y_2\)" style="rounded=0;whiteSpace=wrap;html=1;fillColor=#d5e8d4;strokeColor=#82b366;" parent="1" vertex="1">
          <mxGeometry x="930" y="-99.37" width="40" height="40" as="geometry" />
        </mxCell>
        <mxCell id="cAqMp44vDnKgsNihhd7Q-91" value="\(y_3\)" style="rounded=0;whiteSpace=wrap;html=1;fillColor=#d5e8d4;strokeColor=#82b366;" parent="1" vertex="1">
          <mxGeometry x="970" y="-99.37" width="40" height="40" as="geometry" />
        </mxCell>
        <mxCell id="cAqMp44vDnKgsNihhd7Q-92" value="" style="shape=waypoint;sketch=0;fillStyle=solid;size=6;pointerEvents=1;points=[];fillColor=none;resizable=0;rotatable=0;perimeter=centerPerimeter;snapToPoint=1;" parent="1" vertex="1">
          <mxGeometry x="1021.25" y="-90" width="20" height="20" as="geometry" />
        </mxCell>
        <mxCell id="cAqMp44vDnKgsNihhd7Q-93" value="" style="shape=waypoint;sketch=0;fillStyle=solid;size=6;pointerEvents=1;points=[];fillColor=none;resizable=0;rotatable=0;perimeter=centerPerimeter;snapToPoint=1;" parent="1" vertex="1">
          <mxGeometry x="1061.25" y="-90" width="20" height="20" as="geometry" />
        </mxCell>
        <mxCell id="cAqMp44vDnKgsNihhd7Q-94" value="" style="shape=waypoint;sketch=0;fillStyle=solid;size=6;pointerEvents=1;points=[];fillColor=none;resizable=0;rotatable=0;perimeter=centerPerimeter;snapToPoint=1;" parent="1" vertex="1">
          <mxGeometry x="1101.25" y="-90" width="20" height="20" as="geometry" />
        </mxCell>
        <mxCell id="cAqMp44vDnKgsNihhd7Q-95" value="\(y_{1000}\)" style="rounded=0;whiteSpace=wrap;html=1;fillColor=#d5e8d4;strokeColor=#82b366;" parent="1" vertex="1">
          <mxGeometry x="1130" y="-100" width="40" height="40" as="geometry" />
        </mxCell>
        <mxCell id="cAqMp44vDnKgsNihhd7Q-98" value="\(y_1\)" style="rounded=0;whiteSpace=wrap;html=1;fillColor=#d5e8d4;strokeColor=#82b366;" parent="1" vertex="1">
          <mxGeometry x="770" y="98.75" width="40" height="40" as="geometry" />
        </mxCell>
        <mxCell id="cAqMp44vDnKgsNihhd7Q-99" value="\(y_2\)" style="rounded=0;whiteSpace=wrap;html=1;fillColor=#d5e8d4;strokeColor=#82b366;" parent="1" vertex="1">
          <mxGeometry x="810" y="98.75" width="40" height="40" as="geometry" />
        </mxCell>
        <mxCell id="cAqMp44vDnKgsNihhd7Q-100" value="\(y_3\)" style="rounded=0;whiteSpace=wrap;html=1;fillColor=#d5e8d4;strokeColor=#82b366;" parent="1" vertex="1">
          <mxGeometry x="850" y="98.75" width="40" height="40" as="geometry" />
        </mxCell>
        <mxCell id="cAqMp44vDnKgsNihhd7Q-101" value="\(y_{750}\)" style="rounded=0;whiteSpace=wrap;html=1;fillColor=#d5e8d4;strokeColor=#82b366;" parent="1" vertex="1">
          <mxGeometry x="1010" y="98.75" width="40" height="40" as="geometry" />
        </mxCell>
        <mxCell id="cAqMp44vDnKgsNihhd7Q-102" value="" style="shape=waypoint;sketch=0;fillStyle=solid;size=6;pointerEvents=1;points=[];fillColor=none;resizable=0;rotatable=0;perimeter=centerPerimeter;snapToPoint=1;" parent="1" vertex="1">
          <mxGeometry x="900" y="108.75" width="20" height="20" as="geometry" />
        </mxCell>
        <mxCell id="cAqMp44vDnKgsNihhd7Q-103" value="" style="shape=waypoint;sketch=0;fillStyle=solid;size=6;pointerEvents=1;points=[];fillColor=none;resizable=0;rotatable=0;perimeter=centerPerimeter;snapToPoint=1;" parent="1" vertex="1">
          <mxGeometry x="940" y="108.75" width="20" height="20" as="geometry" />
        </mxCell>
        <mxCell id="cAqMp44vDnKgsNihhd7Q-104" value="" style="shape=waypoint;sketch=0;fillStyle=solid;size=6;pointerEvents=1;points=[];fillColor=none;resizable=0;rotatable=0;perimeter=centerPerimeter;snapToPoint=1;" parent="1" vertex="1">
          <mxGeometry x="980" y="108.75" width="20" height="20" as="geometry" />
        </mxCell>
        <mxCell id="cAqMp44vDnKgsNihhd7Q-105" value="\(y_{1000}\)" style="rounded=0;whiteSpace=wrap;html=1;" parent="1" vertex="1">
          <mxGeometry x="1331" y="98.75" width="40" height="40" as="geometry" />
        </mxCell>
        <mxCell id="cAqMp44vDnKgsNihhd7Q-106" value="\(y_{751}\)" style="rounded=0;whiteSpace=wrap;html=1;" parent="1" vertex="1">
          <mxGeometry x="1090" y="98.75" width="40" height="40" as="geometry" />
        </mxCell>
        <mxCell id="cAqMp44vDnKgsNihhd7Q-107" value="\(y_{752}\)" style="rounded=0;whiteSpace=wrap;html=1;" parent="1" vertex="1">
          <mxGeometry x="1130" y="98.75" width="40" height="40" as="geometry" />
        </mxCell>
        <mxCell id="cAqMp44vDnKgsNihhd7Q-108" value="\(y_{753}\)" style="rounded=0;whiteSpace=wrap;html=1;" parent="1" vertex="1">
          <mxGeometry x="1170" y="98.75" width="40" height="40" as="geometry" />
        </mxCell>
        <mxCell id="cAqMp44vDnKgsNihhd7Q-109" value="" style="shape=waypoint;sketch=0;fillStyle=solid;size=6;pointerEvents=1;points=[];fillColor=none;resizable=0;rotatable=0;perimeter=centerPerimeter;snapToPoint=1;" parent="1" vertex="1">
          <mxGeometry x="1220" y="110" width="20" height="20" as="geometry" />
        </mxCell>
        <mxCell id="cAqMp44vDnKgsNihhd7Q-110" value="" style="shape=waypoint;sketch=0;fillStyle=solid;size=6;pointerEvents=1;points=[];fillColor=none;resizable=0;rotatable=0;perimeter=centerPerimeter;snapToPoint=1;" parent="1" vertex="1">
          <mxGeometry x="1260" y="110" width="20" height="20" as="geometry" />
        </mxCell>
        <mxCell id="cAqMp44vDnKgsNihhd7Q-111" value="" style="shape=waypoint;sketch=0;fillStyle=solid;size=6;pointerEvents=1;points=[];fillColor=none;resizable=0;rotatable=0;perimeter=centerPerimeter;snapToPoint=1;" parent="1" vertex="1">
          <mxGeometry x="1300" y="110" width="20" height="20" as="geometry" />
        </mxCell>
        <mxCell id="cAqMp44vDnKgsNihhd7Q-112" value="&lt;b&gt;A model&lt;/b&gt;" style="text;html=1;align=center;verticalAlign=middle;whiteSpace=wrap;rounded=0;" parent="1" vertex="1">
          <mxGeometry x="-80" y="530" width="60" height="40" as="geometry" />
        </mxCell>
        <mxCell id="cAqMp44vDnKgsNihhd7Q-113" value="" style="endArrow=classic;html=1;rounded=0;exitX=0.5;exitY=0;exitDx=0;exitDy=0;entryX=0;entryY=1;entryDx=0;entryDy=0;" parent="1" source="cAqMp44vDnKgsNihhd7Q-112" target="cAqMp44vDnKgsNihhd7Q-121" edge="1">
          <mxGeometry width="50" height="50" relative="1" as="geometry">
            <mxPoint x="-40" y="520" as="sourcePoint" />
            <mxPoint x="110" y="480" as="targetPoint" />
          </mxGeometry>
        </mxCell>
        <mxCell id="cAqMp44vDnKgsNihhd7Q-114" value="&lt;b&gt;A trained model&lt;/b&gt;" style="text;html=1;align=center;verticalAlign=middle;whiteSpace=wrap;rounded=0;" parent="1" vertex="1">
          <mxGeometry x="200" y="530" width="60" height="40" as="geometry" />
        </mxCell>
        <mxCell id="cAqMp44vDnKgsNihhd7Q-115" value="" style="endArrow=classic;html=1;rounded=0;entryX=0.25;entryY=0;entryDx=0;entryDy=0;exitX=1;exitY=1;exitDx=0;exitDy=0;" parent="1" source="cAqMp44vDnKgsNihhd7Q-121" target="cAqMp44vDnKgsNihhd7Q-114" edge="1">
          <mxGeometry width="50" height="50" relative="1" as="geometry">
            <mxPoint x="130" y="480" as="sourcePoint" />
            <mxPoint x="100" y="470" as="targetPoint" />
          </mxGeometry>
        </mxCell>
        <mxCell id="cAqMp44vDnKgsNihhd7Q-116" value="" style="shape=curlyBracket;whiteSpace=wrap;html=1;rounded=1;flipH=1;labelPosition=right;verticalLabelPosition=middle;align=left;verticalAlign=middle;rotation=90;" parent="1" vertex="1">
          <mxGeometry x="105" y="275" width="20" height="300" as="geometry" />
        </mxCell>
        <mxCell id="cAqMp44vDnKgsNihhd7Q-117" value="&lt;b&gt;train data&lt;/b&gt;" style="text;html=1;align=center;verticalAlign=middle;whiteSpace=wrap;rounded=0;" parent="1" vertex="1">
          <mxGeometry x="70" y="20" width="60" height="40" as="geometry" />
        </mxCell>
        <mxCell id="cAqMp44vDnKgsNihhd7Q-118" value="&lt;b&gt;test data&lt;/b&gt;" style="text;html=1;align=center;verticalAlign=middle;whiteSpace=wrap;rounded=0;" parent="1" vertex="1">
          <mxGeometry x="384" y="20" width="60" height="40" as="geometry" />
        </mxCell>
        <mxCell id="cAqMp44vDnKgsNihhd7Q-119" value="&lt;b&gt;test data&lt;/b&gt;" style="text;html=1;align=center;verticalAlign=middle;whiteSpace=wrap;rounded=0;" parent="1" vertex="1">
          <mxGeometry x="1214" y="160" width="60" height="40" as="geometry" />
        </mxCell>
        <mxCell id="cAqMp44vDnKgsNihhd7Q-120" value="&lt;b&gt;train data&lt;/b&gt;" style="text;html=1;align=center;verticalAlign=middle;whiteSpace=wrap;rounded=0;" parent="1" vertex="1">
          <mxGeometry x="900" y="160" width="60" height="40" as="geometry" />
        </mxCell>
        <mxCell id="cAqMp44vDnKgsNihhd7Q-121" value="&lt;b&gt;train data&lt;/b&gt;" style="text;html=1;align=center;verticalAlign=middle;whiteSpace=wrap;rounded=0;" parent="1" vertex="1">
          <mxGeometry x="85" y="440" width="60" height="40" as="geometry" />
        </mxCell>
        <mxCell id="cAqMp44vDnKgsNihhd7Q-122" value="" style="shape=curlyBracket;whiteSpace=wrap;html=1;rounded=1;flipH=1;labelPosition=right;verticalLabelPosition=middle;align=left;verticalAlign=middle;rotation=90;" parent="1" vertex="1">
          <mxGeometry x="430" y="275" width="20" height="300" as="geometry" />
        </mxCell>
        <mxCell id="cAqMp44vDnKgsNihhd7Q-123" value="&lt;b&gt;test data&lt;/b&gt;" style="text;html=1;align=center;verticalAlign=middle;whiteSpace=wrap;rounded=0;" parent="1" vertex="1">
          <mxGeometry x="410" y="440" width="60" height="40" as="geometry" />
        </mxCell>
        <mxCell id="cAqMp44vDnKgsNihhd7Q-124" value="" style="endArrow=classic;html=1;rounded=0;exitX=0.75;exitY=0;exitDx=0;exitDy=0;" parent="1" source="cAqMp44vDnKgsNihhd7Q-114" edge="1">
          <mxGeometry width="50" height="50" relative="1" as="geometry">
            <mxPoint x="140" y="490" as="sourcePoint" />
            <mxPoint x="400" y="470" as="targetPoint" />
          </mxGeometry>
        </mxCell>
        <mxCell id="cAqMp44vDnKgsNihhd7Q-125" value="&lt;b&gt;Having a good or poor performance&lt;/b&gt;" style="text;html=1;align=center;verticalAlign=middle;whiteSpace=wrap;rounded=0;" parent="1" vertex="1">
          <mxGeometry x="520" y="530" width="180" height="40" as="geometry" />
        </mxCell>
        <mxCell id="cAqMp44vDnKgsNihhd7Q-126" value="" style="endArrow=classic;html=1;rounded=0;entryX=0.5;entryY=0;entryDx=0;entryDy=0;" parent="1" target="cAqMp44vDnKgsNihhd7Q-125" edge="1">
          <mxGeometry width="50" height="50" relative="1" as="geometry">
            <mxPoint x="475" y="470" as="sourcePoint" />
            <mxPoint x="525" y="510" as="targetPoint" />
          </mxGeometry>
        </mxCell>
        <mxCell id="cAqMp44vDnKgsNihhd7Q-127" value="&lt;b&gt;TRAINING&lt;/b&gt;" style="text;html=1;align=center;verticalAlign=middle;whiteSpace=wrap;rounded=0;" parent="1" vertex="1">
          <mxGeometry x="80" y="500" width="60" height="40" as="geometry" />
        </mxCell>
        <mxCell id="cAqMp44vDnKgsNihhd7Q-128" value="&lt;b&gt;TESTING&lt;br&gt;(only perform once)&lt;/b&gt;" style="text;html=1;align=center;verticalAlign=middle;whiteSpace=wrap;rounded=0;" parent="1" vertex="1">
          <mxGeometry x="360" y="500" width="140" height="40" as="geometry" />
        </mxCell>
        <mxCell id="cAqMp44vDnKgsNihhd7Q-158" value="\(X_1\)" style="rounded=0;whiteSpace=wrap;html=1;" parent="1" vertex="1">
          <mxGeometry x="20" y="645" width="40" height="40" as="geometry" />
        </mxCell>
        <mxCell id="cAqMp44vDnKgsNihhd7Q-159" value="\(X_2\)" style="rounded=0;whiteSpace=wrap;html=1;" parent="1" vertex="1">
          <mxGeometry x="60" y="645" width="40" height="40" as="geometry" />
        </mxCell>
        <mxCell id="cAqMp44vDnKgsNihhd7Q-160" value="\(X_3\)" style="rounded=0;whiteSpace=wrap;html=1;" parent="1" vertex="1">
          <mxGeometry x="100" y="645" width="40" height="40" as="geometry" />
        </mxCell>
        <mxCell id="cAqMp44vDnKgsNihhd7Q-161" value="" style="shape=waypoint;sketch=0;fillStyle=solid;size=6;pointerEvents=1;points=[];fillColor=none;resizable=0;rotatable=0;perimeter=centerPerimeter;snapToPoint=1;" parent="1" vertex="1">
          <mxGeometry x="150" y="655" width="20" height="20" as="geometry" />
        </mxCell>
        <mxCell id="cAqMp44vDnKgsNihhd7Q-162" value="" style="shape=waypoint;sketch=0;fillStyle=solid;size=6;pointerEvents=1;points=[];fillColor=none;resizable=0;rotatable=0;perimeter=centerPerimeter;snapToPoint=1;" parent="1" vertex="1">
          <mxGeometry x="190" y="655" width="20" height="20" as="geometry" />
        </mxCell>
        <mxCell id="cAqMp44vDnKgsNihhd7Q-163" value="" style="shape=waypoint;sketch=0;fillStyle=solid;size=6;pointerEvents=1;points=[];fillColor=none;resizable=0;rotatable=0;perimeter=centerPerimeter;snapToPoint=1;" parent="1" vertex="1">
          <mxGeometry x="230" y="655" width="20" height="20" as="geometry" />
        </mxCell>
        <mxCell id="cAqMp44vDnKgsNihhd7Q-164" value="\(X_{1000}\)" style="rounded=0;whiteSpace=wrap;html=1;" parent="1" vertex="1">
          <mxGeometry x="260" y="645" width="40" height="40" as="geometry" />
        </mxCell>
        <mxCell id="cAqMp44vDnKgsNihhd7Q-165" value="" style="shape=curlyBracket;whiteSpace=wrap;html=1;rounded=1;flipH=1;labelPosition=right;verticalLabelPosition=middle;align=left;verticalAlign=middle;rotation=90;" parent="1" vertex="1">
          <mxGeometry x="105" y="610" width="20" height="190" as="geometry" />
        </mxCell>
        <mxCell id="cAqMp44vDnKgsNihhd7Q-166" value="" style="shape=curlyBracket;whiteSpace=wrap;html=1;rounded=1;flipH=1;labelPosition=right;verticalLabelPosition=middle;align=left;verticalAlign=middle;rotation=90;" parent="1" vertex="1">
          <mxGeometry x="251.25" y="663.75" width="20" height="82.5" as="geometry" />
        </mxCell>
        <mxCell id="cAqMp44vDnKgsNihhd7Q-167" value="\(75\%\)" style="text;html=1;align=center;verticalAlign=middle;whiteSpace=wrap;rounded=0;" parent="1" vertex="1">
          <mxGeometry x="85" y="715" width="60" height="21.25" as="geometry" />
        </mxCell>
        <mxCell id="cAqMp44vDnKgsNihhd7Q-168" value="\(25\%\)" style="text;html=1;align=center;verticalAlign=middle;whiteSpace=wrap;rounded=0;" parent="1" vertex="1">
          <mxGeometry x="230" y="715" width="60" height="21.25" as="geometry" />
        </mxCell>
        <mxCell id="cAqMp44vDnKgsNihhd7Q-169" value="\(X_1\)" style="rounded=0;whiteSpace=wrap;html=1;fillColor=#dae8fc;strokeColor=#6c8ebf;" parent="1" vertex="1">
          <mxGeometry x="-100" y="765" width="40" height="40" as="geometry" />
        </mxCell>
        <mxCell id="cAqMp44vDnKgsNihhd7Q-170" value="\(X_2\)" style="rounded=0;whiteSpace=wrap;html=1;fillColor=#dae8fc;strokeColor=#6c8ebf;" parent="1" vertex="1">
          <mxGeometry x="-60" y="765" width="40" height="40" as="geometry" />
        </mxCell>
        <mxCell id="cAqMp44vDnKgsNihhd7Q-171" value="\(X_3\)" style="rounded=0;whiteSpace=wrap;html=1;fillColor=#dae8fc;strokeColor=#6c8ebf;" parent="1" vertex="1">
          <mxGeometry x="-20" y="765" width="40" height="40" as="geometry" />
        </mxCell>
        <mxCell id="cAqMp44vDnKgsNihhd7Q-172" value="\(X_{750}\)" style="rounded=0;whiteSpace=wrap;html=1;fillColor=#dae8fc;strokeColor=#6c8ebf;" parent="1" vertex="1">
          <mxGeometry x="140" y="765" width="40" height="40" as="geometry" />
        </mxCell>
        <mxCell id="cAqMp44vDnKgsNihhd7Q-173" value="" style="shape=waypoint;sketch=0;fillStyle=solid;size=6;pointerEvents=1;points=[];fillColor=none;resizable=0;rotatable=0;perimeter=centerPerimeter;snapToPoint=1;" parent="1" vertex="1">
          <mxGeometry x="30" y="775" width="20" height="20" as="geometry" />
        </mxCell>
        <mxCell id="cAqMp44vDnKgsNihhd7Q-174" value="" style="shape=waypoint;sketch=0;fillStyle=solid;size=6;pointerEvents=1;points=[];fillColor=none;resizable=0;rotatable=0;perimeter=centerPerimeter;snapToPoint=1;" parent="1" vertex="1">
          <mxGeometry x="70" y="775" width="20" height="20" as="geometry" />
        </mxCell>
        <mxCell id="cAqMp44vDnKgsNihhd7Q-175" value="" style="shape=waypoint;sketch=0;fillStyle=solid;size=6;pointerEvents=1;points=[];fillColor=none;resizable=0;rotatable=0;perimeter=centerPerimeter;snapToPoint=1;" parent="1" vertex="1">
          <mxGeometry x="110" y="775" width="20" height="20" as="geometry" />
        </mxCell>
        <mxCell id="cAqMp44vDnKgsNihhd7Q-176" value="\(X_{751}\)" style="rounded=0;whiteSpace=wrap;html=1;" parent="1" vertex="1">
          <mxGeometry x="220" y="765" width="40" height="40" as="geometry" />
        </mxCell>
        <mxCell id="cAqMp44vDnKgsNihhd7Q-177" value="\(X_{752}\)" style="rounded=0;whiteSpace=wrap;html=1;" parent="1" vertex="1">
          <mxGeometry x="260" y="765" width="40" height="40" as="geometry" />
        </mxCell>
        <mxCell id="cAqMp44vDnKgsNihhd7Q-178" value="\(X_{752}\)" style="rounded=0;whiteSpace=wrap;html=1;" parent="1" vertex="1">
          <mxGeometry x="300" y="765" width="40" height="40" as="geometry" />
        </mxCell>
        <mxCell id="cAqMp44vDnKgsNihhd7Q-179" value="\(X_{1000}\)" style="rounded=0;whiteSpace=wrap;html=1;" parent="1" vertex="1">
          <mxGeometry x="460" y="765" width="40" height="40" as="geometry" />
        </mxCell>
        <mxCell id="cAqMp44vDnKgsNihhd7Q-180" value="" style="shape=waypoint;sketch=0;fillStyle=solid;size=6;pointerEvents=1;points=[];fillColor=none;resizable=0;rotatable=0;perimeter=centerPerimeter;snapToPoint=1;" parent="1" vertex="1">
          <mxGeometry x="350" y="775" width="20" height="20" as="geometry" />
        </mxCell>
        <mxCell id="cAqMp44vDnKgsNihhd7Q-181" value="" style="shape=waypoint;sketch=0;fillStyle=solid;size=6;pointerEvents=1;points=[];fillColor=none;resizable=0;rotatable=0;perimeter=centerPerimeter;snapToPoint=1;" parent="1" vertex="1">
          <mxGeometry x="390" y="775" width="20" height="20" as="geometry" />
        </mxCell>
        <mxCell id="cAqMp44vDnKgsNihhd7Q-182" value="" style="shape=waypoint;sketch=0;fillStyle=solid;size=6;pointerEvents=1;points=[];fillColor=none;resizable=0;rotatable=0;perimeter=centerPerimeter;snapToPoint=1;" parent="1" vertex="1">
          <mxGeometry x="430" y="775" width="20" height="20" as="geometry" />
        </mxCell>
        <mxCell id="cAqMp44vDnKgsNihhd7Q-183" value="" style="endArrow=none;html=1;rounded=0;" parent="1" edge="1">
          <mxGeometry width="50" height="50" relative="1" as="geometry">
            <mxPoint x="-110" y="765" as="sourcePoint" />
            <mxPoint x="190" y="765" as="targetPoint" />
            <Array as="points">
              <mxPoint x="-80" y="735" />
              <mxPoint x="100" y="735" />
              <mxPoint x="180" y="735" />
            </Array>
          </mxGeometry>
        </mxCell>
        <mxCell id="cAqMp44vDnKgsNihhd7Q-184" value="" style="endArrow=none;html=1;rounded=0;" parent="1" edge="1">
          <mxGeometry width="50" height="50" relative="1" as="geometry">
            <mxPoint x="210" y="765" as="sourcePoint" />
            <mxPoint x="510" y="765" as="targetPoint" />
            <Array as="points">
              <mxPoint x="220" y="735" />
              <mxPoint x="420" y="735" />
              <mxPoint x="480" y="735" />
            </Array>
          </mxGeometry>
        </mxCell>
        <mxCell id="cAqMp44vDnKgsNihhd7Q-189" value="&lt;b&gt;model A&lt;/b&gt;&lt;div&gt;&lt;b&gt;model B&lt;/b&gt;&lt;/div&gt;&lt;div&gt;&lt;b&gt;model C&lt;/b&gt;&lt;/div&gt;&lt;div&gt;&lt;b&gt;. . .&lt;/b&gt;&lt;/div&gt;" style="text;html=1;align=center;verticalAlign=middle;whiteSpace=wrap;rounded=0;" parent="1" vertex="1">
          <mxGeometry x="-160" y="940" width="60" height="70" as="geometry" />
        </mxCell>
        <mxCell id="cAqMp44vDnKgsNihhd7Q-190" value="" style="endArrow=classic;html=1;rounded=0;exitX=0.5;exitY=0;exitDx=0;exitDy=0;entryX=0;entryY=1;entryDx=0;entryDy=0;" parent="1" source="cAqMp44vDnKgsNihhd7Q-189" target="cAqMp44vDnKgsNihhd7Q-194" edge="1">
          <mxGeometry width="50" height="50" relative="1" as="geometry">
            <mxPoint x="-120" y="920" as="sourcePoint" />
            <mxPoint x="30" y="880" as="targetPoint" />
          </mxGeometry>
        </mxCell>
        <mxCell id="cAqMp44vDnKgsNihhd7Q-191" value="&lt;b&gt;trained model A&lt;/b&gt;&lt;div&gt;&lt;b&gt;trained model B&lt;/b&gt;&lt;/div&gt;&lt;div&gt;&lt;b&gt;trained model C&lt;/b&gt;&lt;/div&gt;&lt;div&gt;&lt;b&gt;. . .&lt;/b&gt;&lt;/div&gt;" style="text;html=1;align=center;verticalAlign=middle;whiteSpace=wrap;rounded=0;" parent="1" vertex="1">
          <mxGeometry x="90" y="940" width="120" height="70" as="geometry" />
        </mxCell>
        <mxCell id="cAqMp44vDnKgsNihhd7Q-192" value="" style="endArrow=classic;html=1;rounded=0;entryX=0.25;entryY=0;entryDx=0;entryDy=0;exitX=1;exitY=1;exitDx=0;exitDy=0;" parent="1" source="cAqMp44vDnKgsNihhd7Q-194" target="cAqMp44vDnKgsNihhd7Q-191" edge="1">
          <mxGeometry width="50" height="50" relative="1" as="geometry">
            <mxPoint x="50" y="880" as="sourcePoint" />
            <mxPoint x="20" y="870" as="targetPoint" />
          </mxGeometry>
        </mxCell>
        <mxCell id="cAqMp44vDnKgsNihhd7Q-193" value="" style="shape=curlyBracket;whiteSpace=wrap;html=1;rounded=1;flipH=1;labelPosition=right;verticalLabelPosition=middle;align=left;verticalAlign=middle;rotation=90;" parent="1" vertex="1">
          <mxGeometry x="25" y="675" width="20" height="300" as="geometry" />
        </mxCell>
        <mxCell id="cAqMp44vDnKgsNihhd7Q-194" value="&lt;b&gt;train data&lt;/b&gt;" style="text;html=1;align=center;verticalAlign=middle;whiteSpace=wrap;rounded=0;" parent="1" vertex="1">
          <mxGeometry x="5" y="840" width="60" height="40" as="geometry" />
        </mxCell>
        <mxCell id="cAqMp44vDnKgsNihhd7Q-195" value="" style="shape=curlyBracket;whiteSpace=wrap;html=1;rounded=1;flipH=1;labelPosition=right;verticalLabelPosition=middle;align=left;verticalAlign=middle;rotation=90;" parent="1" vertex="1">
          <mxGeometry x="350" y="675" width="20" height="300" as="geometry" />
        </mxCell>
        <mxCell id="cAqMp44vDnKgsNihhd7Q-196" value="&lt;b&gt;test data&lt;/b&gt;" style="text;html=1;align=center;verticalAlign=middle;whiteSpace=wrap;rounded=0;" parent="1" vertex="1">
          <mxGeometry x="330" y="840" width="60" height="40" as="geometry" />
        </mxCell>
        <mxCell id="cAqMp44vDnKgsNihhd7Q-197" value="" style="endArrow=classic;html=1;rounded=0;exitX=0.75;exitY=0;exitDx=0;exitDy=0;" parent="1" source="cAqMp44vDnKgsNihhd7Q-191" edge="1">
          <mxGeometry width="50" height="50" relative="1" as="geometry">
            <mxPoint x="60" y="890" as="sourcePoint" />
            <mxPoint x="320" y="870" as="targetPoint" />
          </mxGeometry>
        </mxCell>
        <mxCell id="cAqMp44vDnKgsNihhd7Q-198" value="&lt;b&gt;Determining which model is the best&lt;/b&gt;" style="text;html=1;align=center;verticalAlign=middle;whiteSpace=wrap;rounded=0;" parent="1" vertex="1">
          <mxGeometry x="440" y="940" width="180" height="70" as="geometry" />
        </mxCell>
        <mxCell id="cAqMp44vDnKgsNihhd7Q-199" value="" style="endArrow=classic;html=1;rounded=0;entryX=0.5;entryY=0;entryDx=0;entryDy=0;" parent="1" target="cAqMp44vDnKgsNihhd7Q-198" edge="1">
          <mxGeometry width="50" height="50" relative="1" as="geometry">
            <mxPoint x="395" y="870" as="sourcePoint" />
            <mxPoint x="445" y="910" as="targetPoint" />
          </mxGeometry>
        </mxCell>
        <mxCell id="cAqMp44vDnKgsNihhd7Q-200" value="&lt;b&gt;TRAINING&lt;/b&gt;" style="text;html=1;align=center;verticalAlign=middle;whiteSpace=wrap;rounded=0;" parent="1" vertex="1">
          <mxGeometry y="900" width="60" height="40" as="geometry" />
        </mxCell>
        <mxCell id="cAqMp44vDnKgsNihhd7Q-201" value="&lt;b&gt;TESTING&lt;br&gt;(only perform once)&lt;/b&gt;" style="text;html=1;align=center;verticalAlign=middle;whiteSpace=wrap;rounded=0;" parent="1" vertex="1">
          <mxGeometry x="280" y="900" width="140" height="40" as="geometry" />
        </mxCell>
        <mxCell id="cAqMp44vDnKgsNihhd7Q-202" value="" style="endArrow=block;html=1;rounded=0;strokeWidth=4;endFill=1;" parent="1" edge="1">
          <mxGeometry width="50" height="50" relative="1" as="geometry">
            <mxPoint x="350" y="1000" as="sourcePoint" />
            <mxPoint x="350" y="950" as="targetPoint" />
          </mxGeometry>
        </mxCell>
        <mxCell id="cAqMp44vDnKgsNihhd7Q-203" value="&lt;b&gt;This is not a testing anymore, but&lt;/b&gt;&lt;div&gt;&lt;b&gt;meta-training&lt;/b&gt;&lt;/div&gt;" style="text;html=1;align=center;verticalAlign=middle;whiteSpace=wrap;rounded=0;fontColor=#3399FF;" parent="1" vertex="1">
          <mxGeometry x="280" y="1010" width="140" height="40" as="geometry" />
        </mxCell>
        <mxCell id="cAqMp44vDnKgsNihhd7Q-204" value="\(X_1\)" style="rounded=0;whiteSpace=wrap;html=1;" parent="1" vertex="1">
          <mxGeometry x="960" y="640" width="40" height="40" as="geometry" />
        </mxCell>
        <mxCell id="cAqMp44vDnKgsNihhd7Q-205" value="\(X_2\)" style="rounded=0;whiteSpace=wrap;html=1;" parent="1" vertex="1">
          <mxGeometry x="1000" y="640" width="40" height="40" as="geometry" />
        </mxCell>
        <mxCell id="cAqMp44vDnKgsNihhd7Q-206" value="\(X_3\)" style="rounded=0;whiteSpace=wrap;html=1;" parent="1" vertex="1">
          <mxGeometry x="1040" y="640" width="40" height="40" as="geometry" />
        </mxCell>
        <mxCell id="cAqMp44vDnKgsNihhd7Q-207" value="" style="shape=waypoint;sketch=0;fillStyle=solid;size=6;pointerEvents=1;points=[];fillColor=none;resizable=0;rotatable=0;perimeter=centerPerimeter;snapToPoint=1;" parent="1" vertex="1">
          <mxGeometry x="1090" y="650" width="20" height="20" as="geometry" />
        </mxCell>
        <mxCell id="cAqMp44vDnKgsNihhd7Q-208" value="" style="shape=waypoint;sketch=0;fillStyle=solid;size=6;pointerEvents=1;points=[];fillColor=none;resizable=0;rotatable=0;perimeter=centerPerimeter;snapToPoint=1;" parent="1" vertex="1">
          <mxGeometry x="1130" y="650" width="20" height="20" as="geometry" />
        </mxCell>
        <mxCell id="cAqMp44vDnKgsNihhd7Q-209" value="" style="shape=waypoint;sketch=0;fillStyle=solid;size=6;pointerEvents=1;points=[];fillColor=none;resizable=0;rotatable=0;perimeter=centerPerimeter;snapToPoint=1;" parent="1" vertex="1">
          <mxGeometry x="1170" y="650" width="20" height="20" as="geometry" />
        </mxCell>
        <mxCell id="cAqMp44vDnKgsNihhd7Q-210" value="\(X_{1000}\)" style="rounded=0;whiteSpace=wrap;html=1;" parent="1" vertex="1">
          <mxGeometry x="1200" y="640" width="40" height="40" as="geometry" />
        </mxCell>
        <mxCell id="cAqMp44vDnKgsNihhd7Q-211" value="" style="shape=curlyBracket;whiteSpace=wrap;html=1;rounded=1;flipH=1;labelPosition=right;verticalLabelPosition=middle;align=left;verticalAlign=middle;rotation=90;" parent="1" vertex="1">
          <mxGeometry x="1022.5" y="627.5" width="20" height="145" as="geometry" />
        </mxCell>
        <mxCell id="cAqMp44vDnKgsNihhd7Q-212" value="" style="shape=curlyBracket;whiteSpace=wrap;html=1;rounded=1;flipH=1;labelPosition=right;verticalLabelPosition=middle;align=left;verticalAlign=middle;rotation=90;" parent="1" vertex="1">
          <mxGeometry x="1132.51" y="669.38" width="20" height="61.25" as="geometry" />
        </mxCell>
        <mxCell id="cAqMp44vDnKgsNihhd7Q-213" value="\(80\%\)" style="text;html=1;align=center;verticalAlign=middle;whiteSpace=wrap;rounded=0;" parent="1" vertex="1">
          <mxGeometry x="1005" y="710" width="60" height="21.25" as="geometry" />
        </mxCell>
        <mxCell id="cAqMp44vDnKgsNihhd7Q-214" value="\(10\%\)" style="text;html=1;align=center;verticalAlign=middle;whiteSpace=wrap;rounded=0;" parent="1" vertex="1">
          <mxGeometry x="1181" y="710" width="60" height="21.25" as="geometry" />
        </mxCell>
        <mxCell id="cAqMp44vDnKgsNihhd7Q-215" value="\(X_1\)" style="rounded=0;whiteSpace=wrap;html=1;fillColor=#dae8fc;strokeColor=#6c8ebf;" parent="1" vertex="1">
          <mxGeometry x="670" y="760" width="40" height="40" as="geometry" />
        </mxCell>
        <mxCell id="cAqMp44vDnKgsNihhd7Q-216" value="\(X_2\)" style="rounded=0;whiteSpace=wrap;html=1;fillColor=#dae8fc;strokeColor=#6c8ebf;" parent="1" vertex="1">
          <mxGeometry x="710" y="760" width="40" height="40" as="geometry" />
        </mxCell>
        <mxCell id="cAqMp44vDnKgsNihhd7Q-217" value="\(X_3\)" style="rounded=0;whiteSpace=wrap;html=1;fillColor=#dae8fc;strokeColor=#6c8ebf;" parent="1" vertex="1">
          <mxGeometry x="750" y="760" width="40" height="40" as="geometry" />
        </mxCell>
        <mxCell id="cAqMp44vDnKgsNihhd7Q-218" value="\(X_{750}\)" style="rounded=0;whiteSpace=wrap;html=1;fillColor=#dae8fc;strokeColor=#6c8ebf;" parent="1" vertex="1">
          <mxGeometry x="910" y="760" width="40" height="40" as="geometry" />
        </mxCell>
        <mxCell id="cAqMp44vDnKgsNihhd7Q-219" value="" style="shape=waypoint;sketch=0;fillStyle=solid;size=6;pointerEvents=1;points=[];fillColor=none;resizable=0;rotatable=0;perimeter=centerPerimeter;snapToPoint=1;" parent="1" vertex="1">
          <mxGeometry x="800" y="770" width="20" height="20" as="geometry" />
        </mxCell>
        <mxCell id="cAqMp44vDnKgsNihhd7Q-220" value="" style="shape=waypoint;sketch=0;fillStyle=solid;size=6;pointerEvents=1;points=[];fillColor=none;resizable=0;rotatable=0;perimeter=centerPerimeter;snapToPoint=1;" parent="1" vertex="1">
          <mxGeometry x="840" y="770" width="20" height="20" as="geometry" />
        </mxCell>
        <mxCell id="cAqMp44vDnKgsNihhd7Q-221" value="" style="shape=waypoint;sketch=0;fillStyle=solid;size=6;pointerEvents=1;points=[];fillColor=none;resizable=0;rotatable=0;perimeter=centerPerimeter;snapToPoint=1;" parent="1" vertex="1">
          <mxGeometry x="880" y="770" width="20" height="20" as="geometry" />
        </mxCell>
        <mxCell id="cAqMp44vDnKgsNihhd7Q-222" value="\(X_{751}\)" style="rounded=0;whiteSpace=wrap;html=1;" parent="1" vertex="1">
          <mxGeometry x="1310" y="759.38" width="40" height="40" as="geometry" />
        </mxCell>
        <mxCell id="cAqMp44vDnKgsNihhd7Q-223" value="\(X_{752}\)" style="rounded=0;whiteSpace=wrap;html=1;" parent="1" vertex="1">
          <mxGeometry x="1350" y="759.38" width="40" height="40" as="geometry" />
        </mxCell>
        <mxCell id="cAqMp44vDnKgsNihhd7Q-224" value="\(X_{752}\)" style="rounded=0;whiteSpace=wrap;html=1;" parent="1" vertex="1">
          <mxGeometry x="1390" y="759.38" width="40" height="40" as="geometry" />
        </mxCell>
        <mxCell id="cAqMp44vDnKgsNihhd7Q-225" value="\(X_{1000}\)" style="rounded=0;whiteSpace=wrap;html=1;" parent="1" vertex="1">
          <mxGeometry x="1550" y="759.38" width="40" height="40" as="geometry" />
        </mxCell>
        <mxCell id="cAqMp44vDnKgsNihhd7Q-226" value="" style="shape=waypoint;sketch=0;fillStyle=solid;size=6;pointerEvents=1;points=[];fillColor=none;resizable=0;rotatable=0;perimeter=centerPerimeter;snapToPoint=1;" parent="1" vertex="1">
          <mxGeometry x="1440" y="769.38" width="20" height="20" as="geometry" />
        </mxCell>
        <mxCell id="cAqMp44vDnKgsNihhd7Q-227" value="" style="shape=waypoint;sketch=0;fillStyle=solid;size=6;pointerEvents=1;points=[];fillColor=none;resizable=0;rotatable=0;perimeter=centerPerimeter;snapToPoint=1;" parent="1" vertex="1">
          <mxGeometry x="1480" y="769.38" width="20" height="20" as="geometry" />
        </mxCell>
        <mxCell id="cAqMp44vDnKgsNihhd7Q-228" value="" style="shape=waypoint;sketch=0;fillStyle=solid;size=6;pointerEvents=1;points=[];fillColor=none;resizable=0;rotatable=0;perimeter=centerPerimeter;snapToPoint=1;" parent="1" vertex="1">
          <mxGeometry x="1520" y="769.38" width="20" height="20" as="geometry" />
        </mxCell>
        <mxCell id="cAqMp44vDnKgsNihhd7Q-229" value="" style="endArrow=none;html=1;rounded=0;" parent="1" edge="1">
          <mxGeometry width="50" height="50" relative="1" as="geometry">
            <mxPoint x="660" y="760" as="sourcePoint" />
            <mxPoint x="960" y="760" as="targetPoint" />
            <Array as="points">
              <mxPoint x="690" y="730" />
              <mxPoint x="870" y="730" />
              <mxPoint x="950" y="730" />
            </Array>
          </mxGeometry>
        </mxCell>
        <mxCell id="cAqMp44vDnKgsNihhd7Q-230" value="" style="endArrow=none;html=1;rounded=0;" parent="1" edge="1">
          <mxGeometry width="50" height="50" relative="1" as="geometry">
            <mxPoint x="1300" y="759.38" as="sourcePoint" />
            <mxPoint x="1600" y="759.38" as="targetPoint" />
            <Array as="points">
              <mxPoint x="1310" y="729.38" />
              <mxPoint x="1510" y="729.38" />
              <mxPoint x="1570" y="729.38" />
            </Array>
          </mxGeometry>
        </mxCell>
        <mxCell id="cAqMp44vDnKgsNihhd7Q-231" value="&lt;b&gt;model A&lt;/b&gt;&lt;div&gt;&lt;b&gt;model B&lt;/b&gt;&lt;/div&gt;&lt;div&gt;&lt;b&gt;model C&lt;/b&gt;&lt;/div&gt;&lt;div&gt;&lt;b&gt;. . .&lt;/b&gt;&lt;/div&gt;" style="text;html=1;align=center;verticalAlign=middle;whiteSpace=wrap;rounded=0;" parent="1" vertex="1">
          <mxGeometry x="720" y="930" width="60" height="80" as="geometry" />
        </mxCell>
        <mxCell id="cAqMp44vDnKgsNihhd7Q-232" value="" style="endArrow=classic;html=1;rounded=0;exitX=0.5;exitY=0;exitDx=0;exitDy=0;entryX=0;entryY=1;entryDx=0;entryDy=0;" parent="1" source="cAqMp44vDnKgsNihhd7Q-231" target="cAqMp44vDnKgsNihhd7Q-236" edge="1">
          <mxGeometry width="50" height="50" relative="1" as="geometry">
            <mxPoint x="820" y="915" as="sourcePoint" />
            <mxPoint x="970" y="875" as="targetPoint" />
          </mxGeometry>
        </mxCell>
        <mxCell id="cAqMp44vDnKgsNihhd7Q-233" value="&lt;b&gt;trained model A&lt;/b&gt;&lt;div&gt;&lt;b&gt;trained model B&lt;/b&gt;&lt;/div&gt;&lt;div&gt;&lt;b&gt;trained model C&lt;/b&gt;&lt;/div&gt;&lt;div&gt;&lt;b&gt;. . .&lt;/b&gt;&lt;/div&gt;" style="text;html=1;align=center;verticalAlign=middle;whiteSpace=wrap;rounded=0;" parent="1" vertex="1">
          <mxGeometry x="920" y="940" width="120" height="70" as="geometry" />
        </mxCell>
        <mxCell id="cAqMp44vDnKgsNihhd7Q-234" value="" style="endArrow=classic;html=1;rounded=0;entryX=0.25;entryY=0;entryDx=0;entryDy=0;exitX=1;exitY=1;exitDx=0;exitDy=0;" parent="1" source="cAqMp44vDnKgsNihhd7Q-236" target="cAqMp44vDnKgsNihhd7Q-233" edge="1">
          <mxGeometry width="50" height="50" relative="1" as="geometry">
            <mxPoint x="990" y="875" as="sourcePoint" />
            <mxPoint x="960" y="865" as="targetPoint" />
          </mxGeometry>
        </mxCell>
        <mxCell id="cAqMp44vDnKgsNihhd7Q-235" value="" style="shape=curlyBracket;whiteSpace=wrap;html=1;rounded=1;flipH=1;labelPosition=right;verticalLabelPosition=middle;align=left;verticalAlign=middle;rotation=90;" parent="1" vertex="1">
          <mxGeometry x="795" y="670" width="20" height="300" as="geometry" />
        </mxCell>
        <mxCell id="cAqMp44vDnKgsNihhd7Q-236" value="&lt;b&gt;train data&lt;/b&gt;" style="text;html=1;align=center;verticalAlign=middle;whiteSpace=wrap;rounded=0;" parent="1" vertex="1">
          <mxGeometry x="780" y="835" width="60" height="40" as="geometry" />
        </mxCell>
        <mxCell id="cAqMp44vDnKgsNihhd7Q-237" value="" style="shape=curlyBracket;whiteSpace=wrap;html=1;rounded=1;flipH=1;labelPosition=right;verticalLabelPosition=middle;align=left;verticalAlign=middle;rotation=90;" parent="1" vertex="1">
          <mxGeometry x="1440" y="669.38" width="20" height="300" as="geometry" />
        </mxCell>
        <mxCell id="cAqMp44vDnKgsNihhd7Q-238" value="&lt;b&gt;validation data&lt;/b&gt;" style="text;html=1;align=center;verticalAlign=middle;whiteSpace=wrap;rounded=0;" parent="1" vertex="1">
          <mxGeometry x="1069.9999999999998" y="835" width="120" height="40" as="geometry" />
        </mxCell>
        <mxCell id="cAqMp44vDnKgsNihhd7Q-239" value="" style="endArrow=classic;html=1;rounded=0;exitX=0.75;exitY=0;exitDx=0;exitDy=0;entryX=0.25;entryY=1;entryDx=0;entryDy=0;" parent="1" source="cAqMp44vDnKgsNihhd7Q-233" target="cAqMp44vDnKgsNihhd7Q-238" edge="1">
          <mxGeometry width="50" height="50" relative="1" as="geometry">
            <mxPoint x="1000" y="885" as="sourcePoint" />
            <mxPoint x="1260" y="865" as="targetPoint" />
          </mxGeometry>
        </mxCell>
        <mxCell id="cAqMp44vDnKgsNihhd7Q-241" value="" style="endArrow=classic;html=1;rounded=0;exitX=0.75;exitY=1;exitDx=0;exitDy=0;" parent="1" source="cAqMp44vDnKgsNihhd7Q-238" edge="1">
          <mxGeometry width="50" height="50" relative="1" as="geometry">
            <mxPoint x="1335" y="865" as="sourcePoint" />
            <mxPoint x="1260" y="940" as="targetPoint" />
          </mxGeometry>
        </mxCell>
        <mxCell id="cAqMp44vDnKgsNihhd7Q-242" value="&lt;b&gt;TRAINING&lt;/b&gt;" style="text;html=1;align=center;verticalAlign=middle;whiteSpace=wrap;rounded=0;" parent="1" vertex="1">
          <mxGeometry x="790" y="890" width="60" height="40" as="geometry" />
        </mxCell>
        <mxCell id="cAqMp44vDnKgsNihhd7Q-243" value="&lt;b&gt;Having a good or bad perrformance&lt;/b&gt;" style="text;html=1;align=center;verticalAlign=middle;whiteSpace=wrap;rounded=0;" parent="1" vertex="1">
          <mxGeometry x="1630" y="935" width="140" height="40" as="geometry" />
        </mxCell>
        <mxCell id="cAqMp44vDnKgsNihhd7Q-246" value="" style="shape=curlyBracket;whiteSpace=wrap;html=1;rounded=1;flipH=1;labelPosition=right;verticalLabelPosition=middle;align=left;verticalAlign=middle;rotation=90;" parent="1" vertex="1">
          <mxGeometry x="1200" y="670" width="20" height="61.25" as="geometry" />
        </mxCell>
        <mxCell id="cAqMp44vDnKgsNihhd7Q-248" value="\(10\%\)" style="text;html=1;align=center;verticalAlign=middle;whiteSpace=wrap;rounded=0;" parent="1" vertex="1">
          <mxGeometry x="1112.51" y="710" width="60" height="21.25" as="geometry" />
        </mxCell>
        <mxCell id="cAqMp44vDnKgsNihhd7Q-249" value="\(X_1\)" style="rounded=0;whiteSpace=wrap;html=1;fillColor=#e1d5e7;strokeColor=#9673a6;" parent="1" vertex="1">
          <mxGeometry x="990" y="760" width="40" height="40" as="geometry" />
        </mxCell>
        <mxCell id="cAqMp44vDnKgsNihhd7Q-250" value="\(X_2\)" style="rounded=0;whiteSpace=wrap;html=1;fillColor=#e1d5e7;strokeColor=#9673a6;" parent="1" vertex="1">
          <mxGeometry x="1030" y="760" width="40" height="40" as="geometry" />
        </mxCell>
        <mxCell id="cAqMp44vDnKgsNihhd7Q-251" value="\(X_3\)" style="rounded=0;whiteSpace=wrap;html=1;fillColor=#e1d5e7;strokeColor=#9673a6;" parent="1" vertex="1">
          <mxGeometry x="1070" y="760" width="40" height="40" as="geometry" />
        </mxCell>
        <mxCell id="cAqMp44vDnKgsNihhd7Q-252" value="\(X_{750}\)" style="rounded=0;whiteSpace=wrap;html=1;fillColor=#e1d5e7;strokeColor=#9673a6;" parent="1" vertex="1">
          <mxGeometry x="1230" y="760" width="40" height="40" as="geometry" />
        </mxCell>
        <mxCell id="cAqMp44vDnKgsNihhd7Q-253" value="" style="shape=waypoint;sketch=0;fillStyle=solid;size=6;pointerEvents=1;points=[];fillColor=#e1d5e7;resizable=0;rotatable=0;perimeter=centerPerimeter;snapToPoint=1;strokeColor=#9673a6;" parent="1" vertex="1">
          <mxGeometry x="1120" y="770" width="20" height="20" as="geometry" />
        </mxCell>
        <mxCell id="cAqMp44vDnKgsNihhd7Q-254" value="" style="shape=waypoint;sketch=0;fillStyle=solid;size=6;pointerEvents=1;points=[];fillColor=#e1d5e7;resizable=0;rotatable=0;perimeter=centerPerimeter;snapToPoint=1;strokeColor=#9673a6;" parent="1" vertex="1">
          <mxGeometry x="1160" y="770" width="20" height="20" as="geometry" />
        </mxCell>
        <mxCell id="cAqMp44vDnKgsNihhd7Q-255" value="" style="shape=waypoint;sketch=0;fillStyle=solid;size=6;pointerEvents=1;points=[];fillColor=#e1d5e7;resizable=0;rotatable=0;perimeter=centerPerimeter;snapToPoint=1;strokeColor=#9673a6;" parent="1" vertex="1">
          <mxGeometry x="1200" y="770" width="20" height="20" as="geometry" />
        </mxCell>
        <mxCell id="cAqMp44vDnKgsNihhd7Q-256" value="" style="endArrow=none;html=1;rounded=0;" parent="1" edge="1">
          <mxGeometry width="50" height="50" relative="1" as="geometry">
            <mxPoint x="980" y="761.25" as="sourcePoint" />
            <mxPoint x="1280" y="761.25" as="targetPoint" />
            <Array as="points">
              <mxPoint x="990" y="731.25" />
              <mxPoint x="1190" y="731.25" />
              <mxPoint x="1250" y="731.25" />
            </Array>
          </mxGeometry>
        </mxCell>
        <mxCell id="cAqMp44vDnKgsNihhd7Q-257" value="" style="shape=curlyBracket;whiteSpace=wrap;html=1;rounded=1;flipH=1;labelPosition=right;verticalLabelPosition=middle;align=left;verticalAlign=middle;rotation=90;" parent="1" vertex="1">
          <mxGeometry x="1120" y="669.38" width="20" height="300" as="geometry" />
        </mxCell>
        <mxCell id="cAqMp44vDnKgsNihhd7Q-258" value="&lt;b&gt;test data&lt;/b&gt;" style="text;html=1;align=center;verticalAlign=middle;whiteSpace=wrap;rounded=0;" parent="1" vertex="1">
          <mxGeometry x="1389.9999999999998" y="835" width="120" height="40" as="geometry" />
        </mxCell>
        <mxCell id="cAqMp44vDnKgsNihhd7Q-259" value="&lt;b&gt;best trained model&lt;/b&gt;" style="text;html=1;align=center;verticalAlign=middle;whiteSpace=wrap;rounded=0;" parent="1" vertex="1">
          <mxGeometry x="1200" y="940" width="120" height="40" as="geometry" />
        </mxCell>
        <mxCell id="cAqMp44vDnKgsNihhd7Q-260" value="" style="endArrow=classic;html=1;rounded=0;exitX=0.75;exitY=0;exitDx=0;exitDy=0;entryX=0.25;entryY=1;entryDx=0;entryDy=0;" parent="1" target="cAqMp44vDnKgsNihhd7Q-258" edge="1">
          <mxGeometry width="50" height="50" relative="1" as="geometry">
            <mxPoint x="1290" y="940" as="sourcePoint" />
            <mxPoint x="1380" y="875" as="targetPoint" />
          </mxGeometry>
        </mxCell>
        <mxCell id="cAqMp44vDnKgsNihhd7Q-261" value="&lt;b&gt;TESTING&lt;br&gt;(only perform once)&lt;/b&gt;" style="text;html=1;align=center;verticalAlign=middle;whiteSpace=wrap;rounded=0;" parent="1" vertex="1">
          <mxGeometry x="1380" y="890" width="140" height="40" as="geometry" />
        </mxCell>
        <mxCell id="cAqMp44vDnKgsNihhd7Q-262" value="" style="endArrow=classic;html=1;rounded=0;exitX=0.75;exitY=1;exitDx=0;exitDy=0;" parent="1" edge="1">
          <mxGeometry width="50" height="50" relative="1" as="geometry">
            <mxPoint x="1480" y="877.5" as="sourcePoint" />
            <mxPoint x="1630" y="950" as="targetPoint" />
          </mxGeometry>
        </mxCell>
      </root>
    </mxGraphModel>
  </diagram>
</mxfile>
